 http://www.imdb.com/title/tt0424136/

Source: Hard.Candy.2006.BluRay.720p.DTS.x264-CHD Thanks!

Subs: Arabic, Danish, Dutch, English, Estonian, Finnish, French, Greek, Romanian, Slovenian and Spanish.

Sample and Screens included.

General
Complete name                            : Hard Candy-720p MP4 AAC x264 BRRip 2006-CC.mp4
Format                                   : MPEG-4
Format profile                           : Base Media
Codec ID                                 : isom
File size                                : 2.75 GiB
Duration                                 : 1h 39mn
Overall bit rate mode                    : Variable
Overall bit rate                         : 3 947 Kbps
Encoded date                             : UTC 2012-10-10 18:59:29

Video
ID                                       : 1
Format                                   : AVC
Format/Info                              : Advanced Video Codec
Format profile                           : High@L4.1
Format settings, CABAC                   : Yes
Format settings, ReFrames                : 5 frames
Codec ID                                 : avc1
Codec ID/Info                            : Advanced Video Coding
Duration                                 : 1h 39mn
Bit rate                                 : 3 629 Kbps
Maximum bit rate                         : 19.1 Mbps
Width                                    : 1 280 pixels
Height                                   : 544 pixels
Display aspect ratio                     : 2.35:1
Frame rate mode                          : Variable
Frame rate                               : 25.000 fps
Minimum frame rate                       : 16.667 fps
Maximum frame rate                       : 25.000 fps
Color space                              : YUV
Chroma subsampling                       : 4:2:0
Bit depth                                : 8 bits
Scan type                                : Progressive
Bits/(Pixel*Frame)                       : 0.208
Stream size                              : 2.49 GiB (90%)
Writing library                          : x264 core 112

Audio
ID                                       : 2
Format                                   : AAC
Format/Info                              : Advanced Audio Codec
Format profile                           : LC
Codec ID                                 : 40
Duration                                 : 1h 39mn
Bit rate mode                            : Variable
Bit rate                                 : 376 Kbps
Maximum bit rate                         : 741 Kbps
Channel(s)                               : 6 channels
Channel positions                        : Front: L C R, Side: L R, LFE
Sampling rate                            : 48.0 KHz
Compression mode                         : Lossy
Delay relative to video                  : 80ms
Stream size                              : 269 MiB (10%)
Language                                 : English

Enjoy...

Requested by mrmuvis.

Coming soon: Meet Joe Black, The Sting, Cat Run, Sunset Blvd and more..